<svg xmlns="http://www.w3.org/2000/svg" width="426.05" height="623.99" viewBox="0 0 426.05 623.99">
  <defs>
    <style>
      .cls-1 {
        isolation: isolate;
      }

      .cls-2 {
        fill: #67cad5;
      }

      .cls-3 {
        fill: #ffce47;
      }

      .cls-4 {
        fill: #fff;
      }

      .cls-5 {
        mix-blend-mode: multiply;
      }

      .cls-6 {
        fill: #eae711;
      }
    </style>
  </defs>
  <title>Asset 3</title>
  <g class="cls-1">
    <g id="Layer_2" data-name="Layer 2">
      <g id="Layer_1-2" data-name="Layer 1">
        <g>
          <path class="cls-2" d="M240.73,34.33A161.58,161.58,0,0,0,82.12,165.17a79.92,79.92,0,0,1,76.67-58.26h0a79.83,79.83,0,0,1,79.6,79.6V355.06c0,.77,0,1.54,0,2.31.79,0,1.58,0,2.38,0a161.54,161.54,0,0,0,0-323.08Z"/>
          <path class="cls-3" d="M80.88,219.31H79.19V195.87c0,.56,0,1.11,0,1.67,0,.08,0,.16,0,.25s0,.27,0,.41c0,.42,0,.84,0,1.26v0c0,.27,0,.55,0,.83v0c0,.58,0,1.15.05,1.72s0,1.09.07,1.64c0,.23,0,.46,0,.68,0,.43,0,.86.07,1.29,0,.22,0,.44,0,.65,0,.46.06.93.1,1.39,0,0,0,.08,0,.11q0,.47.07.94c0,.06,0,.13,0,.19s0,.29,0,.43c0,.38.06.77.1,1.15,0,0,0,0,0,0,0,.44.08.88.12,1.31l0,.19c0,.24,0,.48.08.73s.05.48.08.72c0,.41.09.82.14,1.23,0,.23.05.45.08.68s.08.65.12,1c.06.48.12,1,.19,1.44s.1.74.15,1.11l0,.24Z"/>
          <path class="cls-4" d="M236.33,355.27l-1.29,0-.61,0-.57,0h-.37l-.79,0-.34,0h-.16L230.9,355h0l-.54,0-.34,0-1.44-.1-1.43-.12H227l-.37,0-.81-.07h0l-1.08-.1-1.07-.11h-.12l-.35,0-.28,0-.89-.1-.7-.08h-.11l-1.27-.16-1.34-.18-1.62-.23-1-.16-.16,0-1.06-.17-.41-.07h-.16l-1.1-.19-.33-.06-.4-.07h0l-1.31-.24h0l-.83-.16-.11,0-1.31-.26-.12,0h0l-1.71-.36h-.07l-.13,0-.07,0-.23,0h.05l-.74-.17-.21,0-1.16-.27-1.58-.38-1.38-.34-.85-.22-.12,0-1-.26-.41-.11-.85-.24h0l-.2-.06-.06,0-1.07-.3-.17,0-.2-.06-.07,0-.63-.18-.43-.13-.3-.09-.06,0h0l-.07,0c-1.07-.32-2-.61-2.84-.88l-1.52-.5-1.42-.48-.12,0,0,0,0,0-1.15-.4h0l-1.24-.45-.07,0-.13,0h0l-1.11-.41,0,0-.12,0-.07,0-.64-.24,0,0-1.2-.46-1.35-.53-.06,0-.05,0-1.27-.52-.36-.15-.05,0-1.22-.51-.68-.29-.06,0-.42-.18-.95-.41-.91-.41-1.31-.6-1-.48-.42-.2-1.32-.63-.15-.07h0l-1.25-.61-.11-.05-.07,0-.05,0-.05,0-.4-.2-.85-.43-1.38-.71-.46-.25-.32-.17-.47-.25-.12-.06,0,0,0,0-1-.55,0,0-.12-.06-.38-.21-.15-.08-.76-.42,0,0-.61-.34,0,0-.91-.52-1.59-.92-1.42-.85-1.09-.67-1.28-.79-.66-.41-.48-.31-.88-.57-.06,0-1.23-.81,0,0-.42-.27-1.48-1,0,0-.86-.6-.06,0-.06,0h0l-.11-.08-.24-.17-1.19-.84,0,0-.05,0-1.2-.86c-.91-.66-1.73-1.28-2.51-1.86l-.74-.56-.21-.16-.39-.3-1-.77-.06,0,0,0-.09-.07-1.21-1-1.21-1c-.77-.63-1.54-1.28-2.3-1.93l-.14-.12-1.14-1-1-.85,0-.06-.19-.14-.07-.06-.12-.11-.94-.84L132.51,313l0,0-1.11-1-.09-.08-1-1-1.07-1-.06-.06-1.1-1.09-1.1-1.11-1.63-1.69c-.54-.57-1.08-1.14-1.61-1.71l-.31-.34-.58-.64-.25-.28-.94-1-1-1.17-1-1.19-.52-.62h0l-.49-.58-1-1.19-1-1.21-.15-.19-.82-1-.3-.38L115,294l-.44-.56c-.62-.8-1.24-1.62-1.9-2.5l-.09-.12-.83-1.13-.92-1.28c-.45-.63-.9-1.27-1.34-1.91l-.67-1-.2-.29-.46-.67-.68-1-.32-.48-.5-.77-.23-.36c-.54-.84-1.09-1.71-1.67-2.65s-1.11-1.83-1.62-2.69l-.6-1-.19-.33-.77-1.36-.77-1.38q-.57-1-1.11-2.07c-.37-.7-.74-1.4-1.1-2.1l-.07-.14-.63-1.26,0-.07-.66-1.34-.69-1.44c-.42-.9-.86-1.84-1.32-2.87l-.64-1.45-.62-1.45-.58-1.38,0-.09c-.62-1.48-1.21-3-1.75-4.42L91,250.93l0-.13-.47-1.29-.31-.87-.24-.69-.52-1.54c-.37-1.11-.74-2.27-1.11-3.47h14.16a16.91,16.91,0,1,0-.84-25.7h-19l-.14-1.08c0-.32-.08-.64-.12-1v0c0-.14,0-.28-.05-.42l0-.23c0-.4-.09-.8-.13-1.21,0-.24-.05-.48-.08-.71l-.1-.93c0-.39-.07-.79-.11-1.19v-.08l0-.11c0-.35-.06-.71-.09-1.06v-.1c0-.11,0-.22,0-.33v-.23c0-.2,0-.4,0-.6l0-.32v-.11c0-.44-.07-.88-.09-1.32l0-.69c0-.42-.05-.84-.07-1.26,0-.24,0-.46,0-.67,0-.55-.05-1.09-.07-1.63v-.07c0-.53,0-1.06-.05-1.6v-.07c0-.26,0-.52,0-.77v-.06c0-.41,0-.82,0-1.22,0-.15,0-.27,0-.39v-.25c0-.57,0-1.12,0-1.67,0-1.7,0-3.42.08-5.14h21.14a16.91,16.91,0,1,0-.83-25.7H84.3l.11-.38c.14-.5.29-1,.44-1.43l.24-.75c.14-.44.28-.86.43-1.27s.35-1,.54-1.5.37-1,.56-1.45.31-.78.47-1.17l.12-.29.37-.87,0,0,0-.06.2-.46c.24-.54.48-1.07.73-1.6.14-.31.28-.59.42-.88.29-.6.59-1.19.88-1.75l.73-1.38.47-.84.49-.86.38-.64.05-.09.56-.93.27-.43,0,0c.4-.65.81-1.3,1.24-1.93l.58-.88c.29-.42.58-.85.88-1.27s.61-.84.91-1.26l.94-1.24,0,0c.31-.39.61-.79.93-1.17l.77-.94.42-.5.8-.93c.35-.41.7-.79,1-1.18l1-1.13,1.07-1.11,1.1-1.1,1.12-1.07,1.13-1,1.16-1,1.18-1,1.19-1,1.22-1,1.24-.94,1.25-.91,1.28-.89,1.3-.87,1.31-.84,1.49-.91.52-.3.66-.38.41-.23.51-.28,0,0,.45-.25.64-.34.69-.36.51-.26c.7-.35,1.3-.65,1.85-.91l.13-.06.3-.14.79-.36.18-.08.33-.15,0,0,.81-.36.42-.18.06,0,.33-.14.19-.08c.71-.3,1.46-.59,2.21-.87l.77-.29,1.15-.42,1.5-.51.76-.24,1.5-.45.95-.27h0l.1,0,.28-.08.09,0h0l.19,0,0,0,.8-.21.2,0,.88-.22.52-.12,1.09-.24.47-.1.51-.11.25-.05.2,0,1.24-.24,1.33-.23,1.25-.19.12,0,1.2-.16,1.6-.19,1.26-.12h0l.35,0,.71-.06h.16l.46,0h0l.48,0,.94,0,.76,0h.31l.68,0,.85,0h1.15a77.77,77.77,0,0,1,77.54,77.54S236.33,355.2,236.33,355.27Z"/>
          <g>
            <g>
              <path class="cls-3" d="M158.79,428.67a73.79,73.79,0,0,1-45.9-16.22H113a20.85,20.85,0,0,0,0-41.69,20.66,20.66,0,0,0-12.83,4.42H88a72.88,72.88,0,0,1-2.8-18.64h16a20.84,20.84,0,1,0-1-33.57h-15V258.24c.23.58.46,1.15.7,1.7l.64,1.53c.2.49.44,1,.67,1.56s.44,1,.69,1.54c.43,1,.9,2,1.38,3,.2.44.45,1,.71,1.47s.5,1,.75,1.53.47.94.73,1.45c.37.72.76,1.47,1.16,2.22s.76,1.44,1.18,2.19c.23.42.5.91.78,1.4s.54,1,.82,1.45.55,1,.84,1.44c.54.93,1.11,1.87,1.69,2.81s1.16,1.88,1.77,2.81l.67,1,.42.64c.2.32.46.7.72,1.09l.66,1c.22.32.46.69.72,1q.7,1,1.42,2c.28.4.62.88,1,1.35s.62.86,1,1.32c.61.83,1.26,1.68,1.93,2.54q.28.37.57.74l.49.63c.3.38.66.83,1,1.28l.66.82v3.83h3.24l.3.34c.35.41.72.83,1.1,1.24s.67.75,1,1.12l.28.31-.07-.08,1,1.09c.53.57,1.1,1.18,1.68,1.79s1.11,1.16,1.7,1.76l1.16,1.17,1.13,1.12c.4.4.81.8,1.23,1.19l1.1,1.05,1.18,1.11c.45.42.86.8,1.27,1.16l.92.83.07.09.4.33,1.06.93,1.16,1,.22.19c.75.64,1.56,1.32,2.37,2l1.28,1,.77.62.4.48.6.3,1.35,1,.75.57q1.3,1,2.63,2l1.18.85.65.46,1.29.9,1,.67,1.51,1,.47.31,1.29.85.13.08.9.58,1.19.75,1.36.84,0,0,1.07.65,1.52.9,1.65,1,1,.55.73.41,1.16.65.08.06.24.12,1,.56.77.41.1,0,.73.38,1.45.75.74.37.79.4,1.23.6h0l.37.18,1.36.65.72.34.82.38,1.36.62,1,.45,1.43.62.73.31,1.25.52.56.23,1.42.58,1.33.53,1.31.51.94.36,1.14.42.28.1,1.33.48,1.18.41.3.1,1.46.49,1.58.52c1,.31,2,.62,3,.92l.14,0,1.42.42.48.14.06,0,1.13.32,1.58.44,1.17.31.06,0,.95.24,1.42.35,1.65.4,1.25.29,1,.23.49.11,1.68.36.3.06,1.35.27.16,0,.85.16,1.33.24.84.15,1,.17.12,0,.23,0,1.8.29,1,.16,1.69.24,1.39.19,1.24.16h.22l.83.1,1.42.16.29,0H223l.9.09,1.14.11,1.46.13,1.42.11,1.41.1,1.05.06,1.39.08h.14a73.89,73.89,0,0,1-73.15,65.5Z"/>
              <path class="cls-3" d="M91.19,284c.52.88,1.06,1.79,1.61,2.67s1.22,2,1.82,2.89l.71,1.1,0,0,.16.23.11.16.12.17q.38.59.78,1.18l.5.74.17.24q.39.58.79,1.14c.46.67.94,1.35,1.43,2q.5.71,1,1.41t1,1.39c.68.92,1.33,1.78,2,2.61.2.27.42.55.65.83l.1.12.35.44.43.54v7.72h6.52l.64.7.19.21a26.6,26.6,0,0,0-14,4.4H91.19V284M139.78,337l.12.09.3.22,0,0,0,0,.1.07.28.19.63.44.51.36.17.12,1,.67,1.55,1,.54.35,1.33.88.17.11,0,0,.89.57h0l.43.27.71.44,1.42.88,1.13.69,1.58.94,1.71,1,1,.58.77.44.78.43.11.06.07,0,.17.11.47.23,1,.53.35.19.51.27,0,0,.77.41,1.5.77.78.39.12.06.37.19.05,0,.32.16,1,.5.2.1.42.2,1.35.65.51.24.19.09.9.42,1.38.63,1.09.49.29.13.35.15h0l.23.1.54.23.74.32,1.28.54.67.28.44.18.47.19.22.09.35.14,1.29.51,1.35.52.72.27.29.11,1.17.43.31.11,1.36.48,1.21.42.37.13,1.47.5,1.63.54c.91.3,1.9.6,3,.94l.29.1.18,0h0l.07,0,.56.17.57.17.56.16h0l1.13.32.34.1.88.24.16,0,.28.08,1.25.33.95.24,1.47.37,1.7.41,1.27.29.2,0,.9.2.1,0,.43.09,1.68.36.39.08,1.32.26.28.06h.06l.76.14,1.33.25.58.1.14,0,.16,0,.79.14.24.06.43.05.31.05h0l1.2.19h.21l1.06.16,1.76.25,1.47.2,1.38.17h.09l.92.11.36,0,.56.06h.1l.14,0,.38,0,.25,0,1.09.11,1.19.11.48,0a68,68,0,0,1-66.21,54,66.45,66.45,0,0,1-30.61-7.38l-1.3-.69a26.84,26.84,0,0,0-7.58-49.1,26.89,26.89,0,0,0,20.58-26.11q0-1.19-.1-2.36m-40.35,25.5a26.79,26.79,0,0,0,7.32,3,26.47,26.47,0,0,0-8.48,3.68H92.69a66.73,66.73,0,0,1-1.08-6.64h7.83M85.55,240.88H79.19V329h23.29a14.85,14.85,0,1,1,.75,21.57h-24v4.53a78.91,78.91,0,0,0,4.43,26.11h18.86a14.84,14.84,0,1,1,.75,21.57H95.16a79.6,79.6,0,0,0,143.19-45.37l-1.6,0h-.1l-1.69-.05-.6,0-.6,0h-.34l-.82,0-.31,0h-.17l-1.36-.08-.86-.05-1.53-.11-1.44-.12h-.09l-.42,0-.81-.08-1.12-.11-1.09-.11h-.06l-.43,0-.22,0-.92-.11-.77-.09h-.06l-1.3-.16-1.36-.18-1.64-.24-1.05-.16-.14,0-1.11-.18-.51-.09h0l-1.14-.2-.13,0-.63-.11-1.34-.25-.88-.17h-.07l-1.36-.27-.18,0-1.74-.37-.27-.06-.17,0-.77-.17-.19,0-1.2-.27-1.59-.38-1.4-.35-.88-.23-.08,0-1-.27-.22-.06-1.05-.29-.28-.08-1.22-.34-.32-.09-.66-.19-.66-.2-.15,0-.08,0c-1-.29-1.94-.59-2.9-.9l-1.54-.51-1.44-.49-.19-.07-1.22-.43-1.27-.46-.22-.08-1.14-.42-.21-.08-.68-.25-1.26-.49-1.36-.54-.12,0-.2-.08-1-.42-.45-.19-1.25-.53-.74-.32-.74-.32-.64-.28-.95-.42-1.34-.61-.72-.34-.72-.34-1.34-.64-.08,0-.11-.05-.27-.13-1-.49,0,0-.19-.1-.64-.32-.64-.32-1.42-.73-.64-.34-.63-.33-.18-.1-1.14-.62,0,0-.45-.25-.11-.06-.78-.44-.67-.38-1-.54-1.61-.94-1.44-.86-1.11-.68-1.29-.8-1.13-.71-.92-.6,0,0-1.28-.84-.46-.3-1.49-1-.93-.64-.18-.12-.31-.22-1-.69-.15-.11-.12-.09-1.21-.87q-1.28-.93-2.54-1.89l-.76-.58-.27-.21-.31-.24-1.15-.9,0,0-1.23-1-1.23-1q-1.18-1-2.33-1.95l-.13-.12-1.16-1-1.06-.93,0,0-.22-.2-.06-.05-1-.88c-.39-.35-.78-.7-1.17-1.07L130,313.43l-1.15-1.09-1.13-1.1-1.12-1.11L125.44,309q-.83-.85-1.65-1.7c-.55-.57-1.09-1.15-1.63-1.73l-.91-1-.26-.29-.95-1.06c-.36-.39-.7-.79-1-1.19l-1-1.2c-.35-.4-.68-.8-1-1.2h0q-.52-.6-1-1.21t-1-1.23q-.5-.61-1-1.24l-.49-.63c-.17-.21-.33-.41-.48-.62-.65-.83-1.29-1.67-1.92-2.52q-.48-.63-.94-1.27t-.93-1.29q-.7-1-1.37-1.94c-.23-.32-.45-.65-.67-1l-.67-1c-.23-.34-.46-.69-.69-1l-.29-.44,0,0-.74-1.14q-.87-1.33-1.69-2.69t-1.64-2.72c-.27-.46-.54-.91-.8-1.37s-.53-.92-.79-1.38-.53-.93-.78-1.39q-.58-1-1.13-2.1t-1.11-2.12q-.37-.71-.72-1.43c-.24-.47-.48-1-.7-1.43s-.47-1-.69-1.44q-.69-1.44-1.34-2.91-.33-.73-.65-1.46c-.22-.49-.43-1-.64-1.47l-.62-1.48q-.93-2.23-1.78-4.48c-.19-.5-.38-1-.56-1.51s-.35-1-.52-1.44L88.5,250l-.25-.71q-.13-.36-.25-.71c-.18-.51-.35-1-.52-1.53q-.77-2.3-1.47-4.63c-.16-.52-.31-1-.46-1.56Z"/>
            </g>
            <g class="cls-5">
              <g>
                <path class="cls-3" d="M222.64,391.54a212.47,212.47,0,0,1-90.82-68.26,167.19,167.19,0,0,0,100.12,39.9A73.1,73.1,0,0,1,222.64,391.54Z"/>
                <path class="cls-3" d="M171.24,354.95A173.28,173.28,0,0,0,225,368.69a67.11,67.11,0,0,1-5.13,15.24,205.36,205.36,0,0,1-48.62-29M91,256.54A218.22,218.22,0,0,0,225.15,398.89a79,79,0,0,0,13.21-41.52A161.59,161.59,0,0,1,91,256.54Z"/>
              </g>
            </g>
          </g>
          <path class="cls-4" d="M248,0V25.68H233.44v-11C150.38,18.07,79.33,78.22,63,160.22l-.25,1.22q-.51,2.63-.93,5.28H47q.49-3.31,1.1-6.6H41.74a5.8,5.8,0,1,0,0,11.59h70a6.08,6.08,0,1,1,0,12.17H59.85q-.4,6-.4,12v23H44.87v-6.57H41.74a5.8,5.8,0,1,0,0,11.59h70a6.08,6.08,0,1,1,0,12.17H59.45v92.52H44.87V322H41.74a5.8,5.8,0,1,0,0,11.59h70a6.08,6.08,0,1,1,0,12.17H59.45v9.31a99.1,99.1,0,0,0,3.4,25.8h-15q-.76-3.29-1.33-6.66H41.74a5.8,5.8,0,1,0,0,11.59h70a6.08,6.08,0,1,1,0,12.17H69.2a99.53,99.53,0,0,0,82.31,56.18v-9.75h14.58V469h-7.29A114.1,114.1,0,0,1,53.25,398H41.74a18,18,0,1,1,0-35.93h3.34q-.21-3.46-.21-7v-9.31H41.74a18,18,0,1,1,0-35.93h3.13V236.09H41.74a18,18,0,1,1,0-35.92h3.13v-4.31q0-6,.37-12h-3.5a18,18,0,1,1,0-35.93H50.8C72.5,61.66,150.88,0,240.73,0Z"/>
        </g>
        <g>
          <path class="cls-4" d="M0,519.11H45.5c13.7,0,30.35,3.84,30.35,32.84,0,32.52-17.89,35-30.35,34.26-5.69-.32-21.45-2.42-22.16-2.85v39.92H0Zm43.37,47c5.91,0,9-3.63,9-13.8-.07-10-4-12.88-9-12.88h-20v26.68Z"/>
          <path class="cls-4" d="M82.89,511.85h23.34v80.26c0,10.46,2.42,12.66,6,14.23,0,0,7.4,3,8.4,3v13.95H102.74c-12.88,0-19.85-6.83-19.85-26.9Z"/>
          <path class="cls-4" d="M154.47,547.14c23.34,0,33.16,2.78,33.16,27.82,0,14.37-8,19.5-21.63,19.5h-21.2c0,12.13,5.83,11.63,16.51,11.63,11,0,14.23,0,24.9-1.53V620c-10.35,4.23-28,4-39.85,4-19.21,0-24.9-11.81-24.9-38.85C121.45,553.12,130.28,547.14,154.47,547.14Zm4.48,31.59c3.38,0,5.34-2,5.34-5.16,0-7.58-.82-9.5-8.29-9.5-8.5,0-11.42.78-11.21,14.66Z"/>
          <path class="cls-4" d="M194.31,547.71h19.14l4.2,7.76c5.69-4.55,11-9,22.55-9,18.5,0,22.27,12.31,22.27,27.39v49.45H239.14V573.4c0-6.83-2.56-9-6.72-9-6.8,0-10.74,1.78-14.76,6v52.87H194.31Z"/>
          <path class="cls-6" d="M274.92,519.11h40.13c31.45,0,36.86,29.88,36.86,52.51,0,25.47-10,51.66-36.86,51.66H274.92Zm39.7,91.36c17.22,0,24.19-17.36,24.19-39,0-29.74-9.11-39.84-24.19-39.84H288v78.84Z"/>
          <path class="cls-6" d="M392.46,547c25.61,0,33.58,9.53,33.58,39.56,0,28-7.83,37.43-33.58,37.43s-33.58-10.39-33.58-37.43C358.88,555.68,367.42,547,392.46,547Zm0,64.89c14.23,0,20.49-1.85,20.49-25.33,0-25.47-5.12-27.61-20.49-27.61-14.8,0-20.49,2.13-20.49,27.61C372,610.18,378.94,611.89,392.46,611.89Z"/>
        </g>
      </g>
    </g>
  </g>
</svg>
